<svg xmlns="http://www.w3.org/2000/svg" viewBox="0 0 64 64">
  <defs>
    <pattern id="p" x="0" y="0" width="12" height="12" patternUnits="userSpaceOnUse">
      <rect width="12" height="12" fill="#ffd94d"/>
      <rect x="6" y="0" width="6" height="6" fill="#2f87ff"/>
      <rect x="0" y="6" width="6" height="6" fill="#ff4e73"/>
      <rect x="6" y="6" width="6" height="6" fill="#1abc7a"/>
    </pattern>
  </defs>
  <path d="M37 6c-6 0-12 4-13 10-1 4 0 7 4 11l6 7-20 24h10l12-16 13 16h9L41 34l2-3c5-7 6-11 5-15-2-6-6-10-11-10zm0 8c2 0 4 2 5 3 1 2 0 4-3 8l-2 2-5-6c-2-2-2-3-2-4 1-2 4-3 7-3z" fill="url(#p)" stroke="#fff" stroke-width="2"/>
</svg>
