<svg xmlns="http://www.w3.org/2000/svg" viewBox="0 0 256 256" role="img" aria-label="Laço da inclusão">
  <defs>
    <pattern id="puzzle" x="0" y="0" width="36" height="36" patternUnits="userSpaceOnUse">
      <rect width="36" height="36" fill="#ffd94d"/>
      <rect x="18" y="0" width="18" height="18" fill="#2f87ff"/>
      <rect x="0" y="18" width="18" height="18" fill="#ff4e73"/>
      <circle cx="18" cy="9" r="4" fill="#ffd94d"/>
      <circle cx="9" cy="18" r="4" fill="#2f87ff"/>
      <circle cx="27" cy="18" r="4" fill="#ff4e73"/>
      <circle cx="18" cy="27" r="4" fill="#1abc7a"/>
      <rect x="18" y="18" width="18" height="18" fill="#1abc7a"/>
    </pattern>
    <filter id="shadow" x="-20%" y="-20%" width="140%" height="140%">
      <feDropShadow dx="0" dy="4" stdDeviation="4" flood-color="#18325e" flood-opacity="0.28"/>
    </filter>
  </defs>

  <path
    d="M146 18c-22 0-44 16-49 37-4 14 0 27 13 42l22 24-74 117 37-1 49-86 65 87 33-2-83-116 8-13c16-25 21-41 16-56-7-20-23-33-37-33zm0 28c11 0 19 8 22 16 3 9-1 19-13 36l-7 10-21-24c-8-10-11-17-9-24 2-8 14-14 28-14z"
    fill="url(#puzzle)"
    stroke="#ffffff"
    stroke-width="8"
    stroke-linejoin="round"
    filter="url(#shadow)"
  />
</svg>
