<svg xmlns="http://www.w3.org/2000/svg" viewBox="0 0 256 256" role="img" aria-label="Livro BNCC">
  <defs>
    <linearGradient id="g1" x1="0%" x2="100%" y1="0%" y2="100%">
      <stop offset="0%" stop-color="#0f8f67"/>
      <stop offset="100%" stop-color="#0b5f45"/>
    </linearGradient>
  </defs>
  <rect x="30" y="38" width="196" height="172" rx="20" fill="#ffffff" stroke="#5ab896" stroke-width="10"/>
  <path d="M54 62h72c16 0 30 10 36 24 6-14 20-24 36-24h34v124h-34c-16 0-30 10-36 24-6-14-20-24-36-24H54z" fill="url(#g1)"/>
  <path d="M128 86v112" stroke="#eafff6" stroke-width="8" stroke-linecap="round"/>
  <path d="M92 120h24M164 120h24M92 146h24M164 146h24" stroke="#d0ffe9" stroke-width="8" stroke-linecap="round"/>
  <polygon points="128,24 136,40 154,42 141,54 144,72 128,63 112,72 115,54 102,42 120,40" fill="#ffb703" stroke="#fff3ca" stroke-width="2"/>
</svg>
